Simulation
nRows=40
nColumns=15
endheader
time  TH_x TH_y TH_z SC_y  SC_z  SC_x  AC_y  AC_z  AC_x  GH_y  GH_z  GH_yy  EL_x  PS_y
2.8725  0.000000  0.000000  0.000000  -37.746998540549015  -1.548387426828771  -10.738565601451313  49.61409096592054  11.78292014378128  8.687271688453182  -18.149410993562302  11.255400474252161  20.695099394912265  14.014287540700721  120.000000
2.92995  0.000000  0.000000  0.000000  -37.50418538706657  -1.6215510753408409  -10.253027374303302  50.02398911869607  11.593009945712273  8.561639957267788  -18.437480790928397  9.9468292315074  23.440287894335505  14.383326037701487  120.000000
2.9874  0.000000  0.000000  0.000000  -37.40395159603887  -1.6062901644672818  -9.72655122746907  50.35463781692837  11.378280528247315  8.416527908963424  -17.575644400223897  8.767507624703185  24.69854464301634  14.838570368220768  120.000000
3.0448500000000003  0.000000  0.000000  0.000000  -37.420056579614375  -1.5172867016789642  -9.18910236369086  50.576709293241926  11.15483212068753  8.242029855025015  -15.545827803703501  7.710533530209556  24.41511460049504  15.33273965657832  120.000000
3.1023  0.000000  0.000000  0.000000  -37.51670897047685  -1.372239157501373  -8.661487055241189  50.682755345287525  10.942689251039006  8.032627357896592  -12.420814571835903  6.790262322553714  22.67292482876875  15.821907483283674  120.000000
3.15975  0.000000  0.000000  0.000000  -37.659027356265035  -1.189852004521434  -8.156588984565621  50.68496148160785  10.761243054465728  7.789618700541984  -8.34881818079615  6.026865486763119  19.662490523444877  16.276512236335947  120.000000
3.2172  0.000000  0.000000  0.000000  -37.81767691179544  -0.9900167121097156  -7.6840501641107055  50.6090179662945  10.623017948658168  7.521410692610653  -3.585510329001692  5.431828173423448  15.70120937581081  16.686741290751122  120.000000
3.2746500000000003  0.000000  0.000000  0.000000  -37.96844667768193  -0.7929314132179868  -7.253738863188094  50.48653243381229  10.530256015843772  7.242476724510082  1.4884067159805592  4.999241598485091  11.240236650705143  17.060195618566716  120.000000
3.3321  0.000000  0.000000  0.000000  -38.0921091340936  -0.6182609282992607  -6.875589841575408  50.34745731327858  10.476685935452037  6.972124128873166  6.4454071523319145  4.706577999169944  6.775330919496242  17.41277340207288  120.000000
3.38955  0.000000  0.000000  0.000000  -38.17506221612025  -0.4800873784101496  -6.558127078219765  50.2177527195234  10.452175227476683  6.730558330705062  10.970239169209982  4.523499346290491  2.6780971244836085  17.76082168731487  120.000000
3.447  0.000000  0.000000  0.000000  -38.21338187937554  -0.3854096598842412  -6.307294718872407  50.114802471469396  10.446452500855756  6.535306448019366  14.924662304827843  4.421952018200417  -0.8765593548467069  18.11491167163176  120.000000
3.5044500000000003  0.000000  0.000000  0.000000  -38.21429393934546  -0.33406694107706647  -6.127706618012056  50.0456925832657  10.45188599825354  6.397752789087353  18.295793246480432  4.381542453378063  -3.8596208408048898  18.477945387502942  120.000000
3.5619  0.000000  0.000000  0.000000  -38.1907364851433  -0.31758920568704085  -6.023411400536133  50.01036851710352  10.46599636718841  6.321747692491263  21.123848145287923  4.391229992862659  -6.309558793296549  18.848034660983647  120.000000
3.61935  0.000000  0.000000  0.000000  -38.15552571553592  -0.32203097454811846  -5.997509980266303  50.003442518922995  10.490369813714876  6.306389645742639  23.4410720686457  4.447416938253732  -8.26307853804168  19.221830522549283  120.000000
3.6768  0.000000  0.000000  0.000000  -38.1178109693408  -0.3341648061803306  -6.0527827865985815  50.01497307851013  10.527233644954354  6.349243133972969  25.252444254050097  4.54957449381683  -9.729774710256864  19.596725545293143  120.000000
3.7342500000000003  0.000000  0.000000  0.000000  -38.08055240720656  -0.3455610661677315  -6.192118222689634  50.031650788581445  10.576676546367139  6.448901210490836  26.550984337284106  4.697192529258201  -10.703926841506126  19.971647712548815  120.000000
3.7917  0.000000  0.000000  0.000000  -38.04051468950255  -0.3527783579265688  -6.4187422916404975  50.03995246440558  10.636305025009696  6.6047028334815945  27.340208125170115  4.890785040088255  -11.186345271331543  20.347074468716585  120.000000
3.84915  0.000000  0.000000  0.000000  -37.989434376789205  -0.3555256238217072  -6.735675069471396  50.02847755180155  10.70285494396395  6.815519509097529  27.6272886194839  5.134479315500202  -11.17751268087443  20.723871746215668  120.000000
3.9066  0.000000  0.000000  0.000000  -37.91593864474675  -0.35520651680741455  -7.144434144704838  49.98858932727738  10.774250393384602  7.079108423008783  27.405492427269657  5.4385791294168735  -10.660477551193585  21.101939551548284  120.000000
3.9640500000000003  0.000000  0.000000  0.000000  -37.80663631683271  -0.353951474857116  -7.644416824995585  49.91509340587999  10.850979742601341  7.391121529664516  26.661457014832205  5.821251904243146  -9.60931260819783  21.47927300740496  120.000000
4.0215  0.000000  0.000000  0.000000  -37.64904719587165  -0.355131570102133  -8.233409409265862  49.80539915181931  10.93525262581994  7.744859814629992  25.41734935251731  6.308972759280644  -8.035560235633543  21.85176988179891  120.000000
4.07895  0.000000  0.000000  0.000000  -37.43527775870318  -0.36458485537098645  -8.908828040926956  49.658873106624796  11.02856077087677  8.131544795186228  23.793515583178255  6.935753674387916  -6.057615388341894  22.212446321958527  120.000000
4.1364  0.000000  0.000000  0.000000  -37.16639131407648  -0.3911340809111487  -9.668349384063584  49.47787031938942  11.12952608910979  8.540880148937791  22.048121455252616  7.7417320557558575  -3.9486556693531574  22.55007495872152  120.000000
4.19385  0.000000  0.000000  0.000000  -36.85341947379104  -0.4451525102676158  -10.507748886679098  49.26808482332601  11.234135495780189  8.962540361506012  20.52734426205518  8.768578054163193  -2.091021406608064  22.84777446515845  120.000000
4.2513000000000005  0.000000  0.000000  0.000000  -36.516695720450706  -0.5391985109155341  -11.414808580666293  49.033577245449806  11.338213004197627  9.390569851947943  19.532917993494863  10.052993988527465  -0.8410401118534041  23.084119560827617  120.000000
4.30875  0.000000  0.000000  0.000000  -36.18049641830923  -0.6807509397925079  -12.365191201576934  48.7785252347604  11.441866586662288  9.82190661834507  19.2206220645577  11.624022345192227  -0.41604372810888857  23.240977824379627  120.000000
4.3662  0.000000  0.000000  0.000000  -35.87079119292053  -0.8514190122647388  -13.323947757180454  48.52046311824948  11.557770153648843  10.24364846629527  19.59199607290663  13.512756327923741  -0.8723845183119919  23.317278927606782  120.000000
4.42365  0.000000  0.000000  0.000000  -35.63053745921952  -1.0109877206129634  -14.244480018205618  48.28139025523277  11.708281061043902  10.63978302207087  20.539318477084745  15.759248696357698  -2.136526116673772  23.34034278027307  120.000000
4.4811  0.000000  0.000000  0.000000  -35.51781787783962  -1.120416909736004  -15.0684248532332  48.06836115383385  11.906549751880872  11.012994798636047  21.903453753425858  18.39835666934897  -4.047570797115139  23.36355194560456  120.000000
4.53855  0.000000  0.000000  0.000000  -35.59829990757135  -1.1460782179536197  -15.735297558700587  47.879205947567925  12.153052657761886  11.372642742757618  23.517603908733342  21.45262022042991  -6.403902442580797  23.447728795187164  120.000000
4.596  0.000000  0.000000  0.000000  -35.92250997496237  -1.0481956547913902  -16.19640220207467  47.71471136757026  12.440608346969062  11.709163736673432  25.219567651757306  24.923339169762855  -8.986401146822837  23.63172684040948  120.000000
4.65345  0.000000  0.000000  0.000000  -36.5003561337913  -0.7922328256936809  -16.419036718801276  47.5730028825915  12.747426075193323  11.997769191128134  26.87762295962234  28.77339579416232  -11.590222921366992  23.908440713223616  120.000000
4.7109000000000005  0.000000  0.000000  0.000000  -37.301922228839025  -0.3710314267568999  -16.383166246395838  47.44477880145587  13.034124626976078  12.211549287175526  28.417099201252967  32.92904576837343  -14.063783299019478  24.223729936820586  120.000000
4.76835  0.000000  0.000000  0.000000  -38.269162780569495  0.19949221417301394  -16.07884918074109  47.31835519457495  13.250193396876098  12.325804111638112  29.816553142697465  37.29532687893  -16.321677736439906  24.498411916640617  120.000000
4.8258  0.000000  0.000000  0.000000  -39.33736087119649  0.8883968458720953  -15.503457992375756  47.18482540867618  13.346062201095224  12.318063509917344  31.084263784496905  41.777286614213  -18.341592397966934  24.65691407411668  120.000000
4.88325  0.000000  0.000000  0.000000  -40.45170830549032  1.6556984141924567  -14.658662691105542  47.044354853022284  13.284295680224906  12.166835854344997  32.23483619993966  46.297419689528624  -20.156601306742683  24.648153714519264  120.000000
4.9407  0.000000  0.000000  0.000000  -41.573804276216705  2.459525144430443  -13.547903109952681  46.908021840288455  13.046568971813972  11.853434596598454  33.27170933026181  50.80219987337936  -21.837706431693086  24.452763680590625  120.000000
4.99815  0.000000  0.000000  0.000000  -42.67826876418735  3.2625784024464353  -12.175200259514952  46.792877809178044  12.63575190804084  11.366242245499208  34.17914260823743  55.25677996347629  -23.466943729938063  24.075945514019075  120.000000
5.0556  0.000000  0.000000  0.000000  -43.745219896640066  4.036167856416038  -10.548422521208783  46.71533773700085  12.072996891162212  10.705980441579426  34.92715556050784  59.63144918215711  -25.111798590582314  23.53940952668541  120.000000
5.11305  0.000000  0.000000  0.000000  -44.755980762904606  4.759392708644005  -8.686697805545732  46.685393870564695  11.390873415111129  9.888839329399103  35.48371234509642  63.88544061897289  -26.808258655659753  22.88013979915609  120.000000
